<svg xmlns="http://www.w3.org/2000/svg" width="26" height="18" viewBox="0 0 26 18"><path d="M19.942,21.5h1.95V18.969h2.925V17.281H21.892V14.75h-1.95v2.531H17.017v1.688h2.925ZM6,26a1.99,1.99,0,0,1-1.365-.52,1.538,1.538,0,0,1-.585-1.167V9.688A1.538,1.538,0,0,1,4.635,8.52,1.99,1.99,0,0,1,6,8h9.1l1.95,1.688H28.1a2.009,2.009,0,0,1,1.349.52,1.524,1.524,0,0,1,.6,1.167V24.313a1.524,1.524,0,0,1-.6,1.167A2.009,2.009,0,0,1,28.1,26ZM6,9.688V24.313H28.1V11.375H16.237l-1.95-1.688Zm0,0v0Z" transform="translate(-4.05 -8)" fill="#fff"/></svg>