<svg xmlns="http://www.w3.org/2000/svg" width="80.174" height="74.493" viewBox="0 0 80.174 74.493"><g transform="translate(-85.85 -83.716)"><path d="M235.45,155.872a8.3,8.3,0,1,1,8.292-8.294A8.3,8.3,0,0,1,235.45,155.872Zm0-15.1a6.836,6.836,0,1,0,0-.011Z" transform="translate(-110.564 -55.064)" fill="#f81381" stroke="#f81381" stroke-width="1"/><path d="M213.023,218.365,202.255,207.6a11.269,11.269,0,0,1,15.417-16.419,11.269,11.269,0,0,1,18.648,7.235l-1.474.158a9.7,9.7,0,0,0-2.811-5.861,9.806,9.806,0,0,0-13.855,0l-.519.519-.523-.519a9.795,9.795,0,1,0-13.852,13.852l10.776,10.771Z" transform="translate(-92.783 -86.071)" fill="#fff" stroke="#fff" stroke-width="1"/><path d="M323.169,310.252a8.248,8.248,0,0,1-4.866-1.58h0a8.307,8.307,0,1,1,4.866,1.58Zm-4-2.774a6.823,6.823,0,1,0-1.5-9.526,6.823,6.823,0,0,0,1.5,9.526Z" transform="translate(-165.969 -152.559)" fill="#f81381" stroke="#f81381" stroke-width="1"/><path d="M264.875,269.365a11.325,11.325,0,0,1-5.607-1.474l.737-1.278a9.685,9.685,0,0,0,6.4,1.171,9.806,9.806,0,0,0,8.141-11.2l-.114-.737.737-.114a9.8,9.8,0,0,0-3.058-19.351l-15.038,2.376-.228-1.474,15.038-2.376a11.269,11.269,0,0,1,4.222,22.129,11.262,11.262,0,0,1-11.214,12.315Z" transform="translate(-129.316 -115.377)" fill="#fff" stroke="#fff" stroke-width="1"/><path d="M153.342,310.5a8.523,8.523,0,0,1-1.256-.1,8.248,8.248,0,1,1,1.256.1Zm-.026-15.1a6.786,6.786,0,0,0-4.052,1.33h0a6.819,6.819,0,1,0,4.052-1.33Z" transform="translate(-58.734 -152.787)" fill="#f81381" stroke="#f81381" stroke-width="1"/><path d="M191.487,274.275a11.273,11.273,0,0,1-11.251-12.245,11.269,11.269,0,0,1-5.246-19.3l.995,1.083a9.8,9.8,0,0,0,5.187,16.891l.737.111-.111.737a9.8,9.8,0,1,0,19.37,2.929l2.273-15.056,1.474.221L202.642,264.7a11.276,11.276,0,0,1-11.122,9.578Z" transform="translate(-75.324 -120.405)" fill="#fff" stroke="#fff" stroke-width="1"/></g></svg>