<svg xmlns="http://www.w3.org/2000/svg" width="29.443" height="17.855" viewBox="0 0 29.443 17.855"><g transform="translate(-81.152 -97.267)"><path d="M221.794,184.587a3.694,3.694,0,1,1,3.694-3.694A3.694,3.694,0,0,1,221.794,184.587Zm0-6.924a3.23,3.23,0,1,0,3.23,3.23,3.23,3.23,0,0,0-3.23-3.23Z" transform="translate(-125.92 -79.433)" fill="#fff" stroke="#fff" stroke-width="1"/><path d="M208.1,246.931H195.48v-4.708A5.225,5.225,0,0,1,200.7,237h2.179a5.225,5.225,0,0,1,5.218,5.22Zm-12.158-.463h11.694v-4.245a4.762,4.762,0,0,0-4.755-4.76H200.7a4.762,4.762,0,0,0-4.755,4.757Z" transform="translate(-105.919 -132.309)" fill="#fff" stroke="#fff" stroke-width="1"/><path d="M292.733,201.043a3.2,3.2,0,1,1,3.2-3.2A3.2,3.2,0,0,1,292.733,201.043Zm0-5.939a2.738,2.738,0,1,0,2.737,2.738A2.738,2.738,0,0,0,292.733,195.1Z" transform="translate(-188.079 -94.853)" fill="#fff" stroke="#fff" stroke-width="1"/><path d="M322.632,254.836h-4.924v-.463h4.461v-3.924a4.052,4.052,0,0,0-4.044-4.046h-.934v-.463h.934a4.516,4.516,0,0,1,4.508,4.509Z" transform="translate(-212.537 -140.214)" fill="#fff" stroke="#fff" stroke-width="1"/><path d="M158.353,201.043a3.2,3.2,0,1,1,3.2-3.2A3.2,3.2,0,0,1,158.353,201.043Zm0-5.939a2.738,2.738,0,1,0,2.737,2.738A2.738,2.738,0,0,0,158.353,195.1Z" transform="translate(-71.259 -94.853)" fill="#fff" stroke="#fff" stroke-width="1"/><path d="M140.734,254.836H135.81v-4.387a4.516,4.516,0,0,1,4.508-4.509h.934v.463h-.934a4.052,4.052,0,0,0-4.044,4.046v3.924h4.461Z" transform="translate(-54.158 -140.214)" fill="#fff" stroke="#fff" stroke-width="1"/></g></svg>