<svg xmlns="http://www.w3.org/2000/svg" width="24.911" height="20.441" viewBox="0 0 24.911 20.441"><g transform="translate(-86.178 -93.456)"><path d="M216.844,170.881h-4.21l-2.1-3.645,2.1-3.646h4.21l2.1,3.646Zm-3.95-.45h3.69l1.845-3.195-1.845-3.2h-3.69l-1.845,3.2Z" transform="translate(-116.336 -69.634)" fill="#fff" stroke="#fff" stroke-width="1"/><rect width="6.978" height="0.45" transform="translate(102.353 97.377)" fill="#fff" stroke="#fff" stroke-width="1"/><path d="M216.844,278.891h-4.21l-2.1-3.646,2.1-3.645h4.21l2.1,3.645Zm-3.95-.45h3.69l1.845-3.2-1.845-3.195h-3.69l-1.845,3.195Z" transform="translate(-116.336 -165.493)" fill="#fff" stroke="#fff" stroke-width="1"/><rect width="6.978" height="0.45" transform="translate(87.476 109.527)" fill="#fff" stroke="#fff" stroke-width="1"/><path d="M150.724,224.882h-4.21l-2.1-3.646,2.1-3.646h4.21l2.1,3.646Zm-3.95-.45h3.69l1.845-3.2-1.845-3.2h-3.69l-1.848,3.2Z" transform="translate(-57.654 -117.559)" fill="#fff" stroke="#fff" stroke-width="1"/><path d="M287.064,224.882h-4.209l-2.1-3.646,2.1-3.646h4.209l2.1,3.646Zm-3.95-.45h3.69l1.848-3.2-1.845-3.2h-3.69l-1.848,3.2Z" transform="translate(-178.657 -117.559)" fill="#fff" stroke="#fff" stroke-width="1"/><rect width="7.439" height="0.45" transform="translate(94.915 103.452)" fill="#fff" stroke="#fff" stroke-width="1"/></g></svg>