<svg xmlns="http://www.w3.org/2000/svg" width="76.26" height="61.192" viewBox="0 0 76.26 61.192"><g transform="translate(-87.459 -94.971)"><path d="M329.681,181.768H328.2V170.455H316.88V168.97h12.8Z" transform="translate(-166.463 -73.475)" fill="#f81381" stroke="#f81381" stroke-width="1"/><path d="M150.337,211.677l-.887-1.192L181.36,186.7l11.394,9.445,30.425-26.687.976,1.118L192.78,198.1l-11.468-9.512Z" transform="translate(-61.194 -73.783)" fill="#f81381" stroke="#f91381" stroke-width="1"/><path d="M164.618,296.45H148.65V283.507h1.485v11.457h13V276.03h1.485Z" transform="translate(-60.691 -140.787)" fill="#fff" stroke="#fff" stroke-width="1"/><path d="M217.848,276.292H201.88V249.487h1.485v25.32h13V243.97h1.485Z" transform="translate(-94.158 -120.63)" fill="#fff" stroke="#fff" stroke-width="1"/><path d="M271.078,273.576H255.11V245.067H256.6v27.024h13V239.65h1.485Z" transform="translate(-127.626 -117.914)" fill="#fff" stroke="#fff" stroke-width="1"/><path d="M324.312,259.09H308.34v-38h1.485v36.514h13v-41h1.485Z" transform="translate(-161.094 -103.428)" fill="#fff" stroke="#fff" stroke-width="1"/></g></svg>