<svg xmlns="http://www.w3.org/2000/svg" width="25.31" height="24.683" viewBox="0 0 25.31 24.683"><g transform="translate(-84.843 -81.716)"><path d="M229.486,143.95a2.335,2.335,0,1,1,2.334-2.334A2.335,2.335,0,0,1,229.486,143.95Zm0-4.251a1.92,1.92,0,1,0,1.919,1.92,1.92,1.92,0,0,0-1.919-1.92Z" transform="translate(-132.286 -57.064)" fill="#fff" stroke="#fff" stroke-width="1"/><path d="M202.944,196.813l-3.03-3.029a3.171,3.171,0,0,1,4.339-4.621A3.171,3.171,0,0,1,209.5,191.2l-.415.045a2.731,2.731,0,0,0-.791-1.65,2.76,2.76,0,0,0-3.9,0l-.146.146-.147-.146a2.757,2.757,0,1,0-3.9,3.9l3.033,3.031Z" transform="translate(-107.052 -99.066)" fill="#fff" stroke="#fff" stroke-width="1"/><path d="M317.206,298.313a2.321,2.321,0,0,1-1.37-.445h0a2.338,2.338,0,1,1,1.37.445Zm-1.126-.781a1.92,1.92,0,1,0-.423-2.681,1.92,1.92,0,0,0,.423,2.681Z" transform="translate(-209.911 -192.418)" fill="#fff" stroke="#fff" stroke-width="1"/><path d="M259.1,244.506a3.187,3.187,0,0,1-1.578-.415l.207-.36a2.726,2.726,0,0,0,1.8.33,2.76,2.76,0,0,0,2.291-3.151l-.032-.207.207-.032a2.757,2.757,0,1,0-.861-5.446l-4.232.669-.064-.415,4.232-.669a3.171,3.171,0,0,1,1.188,6.228A3.169,3.169,0,0,1,259.1,244.5Z" transform="translate(-158.898 -140.654)" fill="#fff" stroke="#fff" stroke-width="1"/><path d="M147.413,298.642a2.406,2.406,0,0,1-.354-.027,2.322,2.322,0,1,1,.354.027Zm-.007-4.251a1.91,1.91,0,0,0-1.14.374h0a1.919,1.919,0,1,0,1.14-.374Z" transform="translate(-59.734 -192.742)" fill="#fff" stroke="#fff" stroke-width="1"/><path d="M177.023,251.608a3.172,3.172,0,0,1-3.166-3.446,3.171,3.171,0,0,1-1.476-5.432l.28.3a2.757,2.757,0,0,0,1.46,4.754l.207.031-.031.207a2.757,2.757,0,1,0,5.451.824l.64-4.237.415.062-.64,4.236a3.173,3.173,0,0,1-3.13,2.7Z" transform="translate(-82.278 -147.789)" fill="#fff" stroke="#fff" stroke-width="1"/></g></svg>