<svg xmlns="http://www.w3.org/2000/svg" width="22.019" height="17.735" viewBox="0 0 22.019 17.735"><g transform="translate(-87.553 -95.052)"><path d="M320.484,172.573h-.418v-3.185H316.88v-.418h3.6Z" transform="translate(-211.334 -73.475)" fill="#fff" stroke="#fff" stroke-width="0.7"/><path d="M149.7,181.347l-.25-.336,8.985-6.7,3.208,2.66,8.567-7.514.275.315-8.835,7.75-3.229-2.678Z" transform="translate(-61.407 -73.914)" fill="#fff" stroke="#fff" stroke-width="0.7"/><path d="M153.146,279.718h-4.5V277.38h.418v2.069h3.66v-3.42h.418Z" transform="translate(-60.691 -167.281)" fill="#fff" stroke="#fff" stroke-width="0.7"/><path d="M206.376,251.345h-4.5v-6.116h.418v5.777h3.66V243.97h.418Z" transform="translate(-108.356 -138.908)" fill="#fff" stroke="#fff" stroke-width="0.7"/><path d="M259.606,246.372h-4.5v-5.649h.418v5.355h3.66V239.65h.418Z" transform="translate(-156.022 -133.935)" fill="#fff" stroke="#fff" stroke-width="0.7"/><path d="M312.837,226.162h-4.5v-8.544h.418v8.21h3.661V216.61h.418Z" transform="translate(-203.687 -113.725)" fill="#fff" stroke="#fff" stroke-width="0.7"/></g></svg>