<svg xmlns="http://www.w3.org/2000/svg" width="80.437" height="65.881" viewBox="0 0 80.437 65.881"><g transform="translate(-86.178 -93.456)"><path d="M231.6,187.921H217.554l-7.024-12.164,7.024-12.168H231.6l7.024,12.168Zm-13.181-1.5h12.314l6.157-10.662-6.157-10.666H218.421l-6.157,10.666Z" transform="translate(-98.951 -69.634)" fill="#fff" stroke="#fff" stroke-width="1"/><rect width="23.288" height="1.502" transform="translate(138.809 105.373)" fill="#fff" stroke="#fff" stroke-width="1"/><path d="M231.6,295.931H217.554l-7.024-12.168,7.024-12.164H231.6l7.024,12.164Zm-13.181-1.5h12.314l6.157-10.666L230.735,273.1H218.421l-6.157,10.662Z" transform="translate(-98.951 -137.094)" fill="#fff" stroke="#fff" stroke-width="1"/><rect width="23.288" height="1.502" transform="translate(89.158 145.919)" fill="#fff" stroke="#fff" stroke-width="1"/><path d="M165.483,241.925H151.434l-7.024-12.168,7.024-12.168h14.048l7.024,12.168Zm-13.181-1.5h12.314l6.157-10.666-6.157-10.666H152.3l-6.168,10.666Z" transform="translate(-57.654 -103.361)" fill="#f81381" stroke="#f81381" stroke-width="1"/><path d="M301.823,241.925H287.774l-7.024-12.168,7.024-12.168h14.048l7.024,12.168Zm-13.181-1.5h12.314l6.168-10.666-6.157-10.666H288.653l-6.168,10.666Z" transform="translate(-142.809 -103.361)" fill="#f81381" stroke="#f81381" stroke-width="1"/><rect width="24.827" height="1.502" transform="translate(113.985 125.646)" fill="#f81381" stroke="#f81381" stroke-width="1"/></g></svg>